<svg xmlns="http://www.w3.org/2000/svg" width="533.333" height="533.333" preserveAspectRatio="xMidYMid meet" version="1.0" viewBox="0 0 400 400"><metadata>Created by potrace 1.14, written by Peter Selinger 2001-2017</metadata><g fill="#000" stroke="none"><path d="M0 2000 l0 -2000 2000 0 2000 0 0 2000 0 2000 -2000 0 -2000 0 0 -2000z m1353 814 c101 -34 189 -147 224 -284 21 -80 30 -635 11 -670 -19 -35 -60 -48 -91 -27 l-24 16 -5 308 c-5 285 -7 313 -27 373 -44 126 -106 174 -226 174 -103 0 -166 -38 -211 -124 -12 -25 -19 -68 -23 -146 -7 -123 -16 -144 -64 -144 -55 0 -67 22 -67 120 0 158 30 250 104 325 96 95 258 127 399 79z m949 -16 c114 -52 191 -168 209 -311 5 -45 9 -205 7 -355 -3 -257 -4 -274 -22 -288 -26 -19 -65 -18 -88 3 -17 15 -18 38 -18 297 0 155 -5 310 -11 345 -12 76 -46 133 -106 174 -54 38 -159 49 -227 23 -41 -16 -61 -34 -133 -121 -29 -33 -68 -31 -96 7 -18 24 -18 30 -7 58 35 84 105 147 203 182 76 27 213 20 289 -14z m682 1 c55 -15 122 -80 141 -139 14 -42 16 -103 13 -462 -3 -376 -5 -416 -21 -441 -13 -21 -26 -27 -52 -27 -56 0 -65 24 -57 155 4 61 5 253 2 428 l-5 319 -28 24 c-30 25 -75 31 -107 14 -39 -21 -45 -49 -50 -245 l-5 -189 -27 -16 c-25 -13 -31 -13 -55 0 l-28 16 -3 199 c-2 160 0 208 13 240 40 106 151 157 269 124z m-1730 -290 l26 -20 0 -347 c0 -344 0 -347 24 -398 30 -64 77 -101 147 -116 118 -24 222 12 274 96 l30 49 5 240 c5 236 5 239 29 258 28 23 50 24 77 5 17 -13 19 -31 25 -208 6 -233 -1 -303 -41 -385 -56 -114 -161 -179 -305 -190 -179 -14 -321 75 -374 234 -20 59 -21 84 -21 410 0 191 4 353 8 359 9 13 43 33 58 34 6 0 23 -9 38 -21z m925 4 c20 -18 21 -27 23 -358 3 -333 3 -341 27 -392 27 -62 83 -115 136 -133 23 -8 67 -11 110 -8 125 8 185 66 215 206 14 64 21 79 43 92 24 13 30 13 55 -1 26 -14 27 -19 27 -90 -1 -58 -7 -86 -27 -131 -35 -75 -98 -141 -167 -175 -51 -25 -67 -28 -166 -28 -105 0 -114 2 -177 33 -75 37 -121 84 -160 164 -42 85 -48 149 -48 480 l0 309 25 24 c29 29 55 32 84 8z m-1223 -498 c19 -13 22 -27 27 -147 8 -197 46 -300 156 -421 39 -43 61 -76 61 -91 0 -26 -41 -66 -67 -66 -43 0 -149 121 -207 237 -47 94 -65 172 -72 323 -6 119 -5 126 15 153 25 30 56 35 87 12z m1154 -574 c56 -39 136 -84 178 -102 181 -76 380 -39 522 97 61 58 97 69 132 37 33 -30 23 -72 -31 -124 -114 -109 -251 -168 -411 -177 -149 -7 -256 28 -433 141 l-78 50 -27 -26 c-82 -78 -291 -161 -389 -155 -40 3 -50 7 -63 31 -13 24 -13 30 0 54 13 23 29 30 114 50 115 27 190 64 277 139 36 30 74 54 86 54 13 0 68 -31 123 -69z" transform="translate(0.000000,400.000000) scale(0.100000,-0.100000)"/></g></svg>